<?xml version="1.0" standalone="no"?>
<!DOCTYPE svg PUBLIC "-//W3C//DTD SVG 20010904//EN"
 "http://www.w3.org/TR/2001/REC-SVG-20010904/DTD/svg10.dtd">
<svg version="1.0" xmlns="http://www.w3.org/2000/svg"
 width="583.000000pt" height="489.000000pt" viewBox="0 0 583.000000 489.000000"
 preserveAspectRatio="xMidYMid meet">

<g transform="translate(0.000000,489.000000) scale(0.100000,-0.100000)"
fill="#000000" stroke="none">
<path d="M1433 4434 c-10 -4 -13 -46 -13 -157 l0 -152 33 -2 c17 -1 64 -4 102
-7 39 -2 57 -1 41 2 -17 4 -29 12 -28 17 5 26 257 11 425 -25 112 -24 269 -78
283 -96 10 -12 56 -14 275 -12 l263 3 -89 66 c-248 184 -515 297 -815 345 -95
15 -454 29 -477 18z m92 -294 c4 -6 -9 -10 -32 -9 -30 0 -34 2 -18 9 27 12 43
12 50 0z"/>
<path d="M1240 4415 c-241 -36 -504 -125 -714 -242 -56 -31 -107 -56 -114 -56
-6 0 -10 -2 -7 -5 5 -5 -17 -23 -94 -75 -51 -35 -52 -37 -24 -37 18 0 54 17
94 43 122 82 279 168 279 152 0 -3 -22 -16 -49 -29 -57 -27 -97 -51 -196 -115
l-70 -46 273 -3 c179 -1 280 1 293 8 11 6 81 33 156 60 125 46 145 50 225 50
l88 0 0 155 0 155 -27 -1 c-16 -1 -66 -7 -113 -14z"/>
<path d="M3840 4119 c-54 -11 -142 -41 -205 -69 l-110 -49 493 -1 493 0 -3 22
c-3 24 -78 56 -208 90 -118 30 -338 34 -460 7z"/>
<path d="M1453 4061 c-30 -25 -45 -61 -25 -61 10 0 82 73 82 83 0 15 -26 5
-57 -22z"/>
<path d="M1874 4049 c33 -11 61 -17 63 -15 6 5 -87 36 -106 35 -9 -1 11 -10
43 -20z"/>
<path d="M4550 4021 c0 -18 6 -21 43 -20 42 1 42 1 12 11 -16 6 -36 15 -42 21
-10 7 -13 4 -13 -12z"/>
<path d="M5017 4025 c-8 -20 -4 -29 11 -24 5 2 6 13 2 23 -6 19 -7 19 -13 1z"/>
<path d="M1360 4015 c-10 -12 -10 -15 4 -15 9 0 16 7 16 15 0 8 -2 15 -4 15
-2 0 -9 -7 -16 -15z"/>
<path d="M1 3870 c1 -49 4 -90 6 -90 14 0 33 32 33 55 0 20 -4 26 -15 21 -12
-4 -15 3 -15 34 0 21 5 42 10 45 15 9 12 25 -6 25 -13 0 -15 -15 -13 -90z"/>
<path d="M60 3940 c0 -11 4 -20 9 -20 6 0 9 9 8 20 -1 11 -5 20 -9 20 -4 0 -8
-9 -8 -20z"/>
<path d="M237 3946 c3 -4 -6 -18 -20 -30 -94 -78 -107 -92 -107 -112 0 -20 -7
-23 -55 -29 l-55 -7 0 -264 c0 -167 4 -265 10 -269 6 -4 8 -11 5 -16 -4 -5 5
-9 20 -9 34 0 42 -24 19 -58 -53 -80 -54 -84 -54 -304 0 -132 4 -208 10 -208
6 0 10 -9 10 -20 0 -11 -4 -20 -10 -20 -6 0 -10 -126 -10 -359 0 -334 1 -360
18 -364 16 -4 16 -5 0 -6 -16 -1 -18 -12 -18 -86 0 -50 4 -85 10 -85 6 0 10
-11 10 -25 0 -14 -4 -25 -10 -25 -5 0 -10 -8 -10 -17 0 -14 2 -15 9 -4 6 9 11
10 15 2 4 -6 4 -16 1 -21 -4 -7 2 -9 18 -5 16 4 30 1 41 -10 15 -15 16 -15 17
2 0 10 8 -1 17 -25 17 -40 19 -41 37 -27 15 10 16 14 5 15 -11 0 -11 3 -2 12
17 17 15 31 -3 24 -9 -3 -15 0 -15 9 0 8 7 15 15 15 9 0 15 9 14 23 -1 17 -2
18 -6 4 -2 -9 -9 -15 -14 -11 -5 3 -7 10 -4 15 4 5 1 9 -5 9 -7 0 -9 -7 -6
-16 3 -9 3 -21 -1 -27 -5 -7 -10 7 -13 31 -5 40 -6 41 -18 21 -9 -14 -9 -19
-2 -14 8 5 11 1 8 -10 -1 -10 -10 -20 -18 -23 -8 -3 -12 -1 -8 3 4 5 2 15 -5
23 -9 12 -9 16 0 19 7 3 13 11 13 19 0 8 5 14 11 14 5 0 7 5 3 11 -4 8 -12 3
-21 -12 l-13 -24 6 28 c4 18 2 27 -6 27 -8 0 -11 -11 -8 -30 3 -17 1 -33 -4
-36 -4 -3 -8 15 -8 40 0 36 -4 46 -20 51 -26 8 -26 21 0 28 11 3 20 1 20 -4 0
-14 69 -39 106 -39 34 0 34 0 35 48 1 26 1 50 0 55 0 4 3 7 9 7 5 0 10 -8 11
-17 3 -59 20 -145 32 -160 13 -17 27 -16 27 1 0 23 15 27 108 32 48 2 165 9
261 14 96 5 178 7 182 4 5 -3 9 -2 9 3 0 4 -15 15 -33 23 -17 8 -33 22 -35 31
-2 13 11 17 74 22 42 4 108 7 146 7 l68 0 0 -54 c0 -89 -3 -87 119 -81 58 3
130 8 159 11 l52 5 0 71 0 71 -165 -7 -165 -7 0 92 0 92 -207 -7 c-205 -7
-208 -7 -230 -32 -12 -15 -24 -21 -28 -15 -4 7 -63 9 -166 6 -134 -4 -167 -2
-195 11 -37 18 -44 40 -16 48 53 15 134 27 151 21 27 -8 71 11 71 32 1 17 2
17 15 -1 14 -18 29 -19 242 -17 125 1 230 4 235 7 4 3 8 113 8 245 l0 239
-237 -1 -238 -1 -3 26 c-3 24 -2 25 65 29 l68 3 -67 2 c-54 2 -66 5 -62 16 4
11 26 15 86 15 45 0 85 -2 90 -5 4 -3 82 -6 173 -8 91 -1 168 -6 172 -9 3 -4
-8 -7 -25 -7 -48 0 -48 -18 0 -22 l43 -3 -28 -15 -29 -14 7 -236 c4 -129 11
-239 15 -243 4 -5 16 -7 26 -5 17 3 20 16 24 108 l5 105 8 -93 c4 -51 10 -99
13 -106 4 -11 39 -14 175 -14 l169 0 0 263 c0 201 -3 265 -12 269 -10 5 -10 7
0 12 9 4 12 82 12 340 l0 334 -29 0 c-45 0 -49 20 -4 22 37 1 37 1 6 5 -18 2
-33 8 -33 12 0 4 14 6 30 3 l30 -4 0 155 0 156 -37 3 -38 3 0 110 0 110 38 -3
c28 -3 37 0 37 12 0 9 -12 19 -26 22 l-25 7 25 26 c14 15 26 30 26 34 0 17
-38 4 -65 -21 -30 -28 -33 -29 -187 -36 -143 -6 -298 -28 -388 -56 -88 -26
-73 -1 38 63 43 25 84 47 92 50 8 3 -108 6 -259 6 l-273 1 -37 -28 c-56 -44
-70 -48 -26 -8 l40 36 -42 -2 c-22 -2 -39 -7 -36 -12z m1033 -150 c0 -35 3
-84 6 -110 l7 -46 -44 0 c-24 0 -163 11 -309 25 -146 14 -268 25 -272 25 -5 0
-8 18 -8 40 0 36 3 41 33 54 93 39 306 74 455 75 l132 1 0 -64z m-1110 -5
c-10 -20 -30 -29 -30 -14 0 10 33 44 37 39 3 -2 0 -14 -7 -25z m460 -61 l0
-30 -61 0 c-74 0 -76 17 -3 42 65 23 64 23 64 -12z m-20 -360 c22 -1 23 -2 5
-9 -28 -10 -155 -1 -155 11 0 6 24 8 63 4 34 -3 73 -5 87 -6z m314 -19 c52 -5
59 -9 63 -30 l3 -23 -92 6 c-183 13 -228 18 -228 28 0 7 14 8 35 5 19 -3 35
-2 35 4 0 5 -16 9 -35 9 -19 0 -35 4 -35 10 0 9 127 5 254 -9z m-324 -10 c13
-1 20 -5 15 -9 -14 -11 -155 -2 -155 9 0 6 24 8 58 5 31 -2 68 -5 82 -5z m604
-7 c42 -4 74 -9 71 -12 -3 -3 0 -11 6 -19 10 -11 -8 -13 -102 -12 -128 1 -153
6 -155 32 -2 19 42 22 180 11z m-1021 -169 c-7 -21 -13 -19 -13 6 0 11 4 18
10 14 5 -3 7 -12 3 -20z m-43 -67 c-1 -26 -3 -30 -10 -16 -6 9 -7 23 -4 32 9
25 14 19 14 -16z m40 -13 c0 -8 -2 -15 -4 -15 -2 0 -6 7 -10 15 -3 8 -1 15 4
15 6 0 10 -7 10 -15z m-80 -85 c0 -11 -4 -20 -10 -20 -5 0 -10 9 -10 20 0 11
5 20 10 20 6 0 10 -9 10 -20z m-53 -62 c-3 -7 -5 -2 -5 12 0 14 2 19 5 13 2
-7 2 -19 0 -25z m826 -245 c-7 -2 -21 -2 -30 0 -10 3 -4 5 12 5 17 0 24 -2 18
-5z m371 -79 c25 -10 8 -24 -30 -24 -38 0 -46 16 -11 23 12 2 23 5 24 6 1 0 8
-2 17 -5z m-104 -14 c0 -12 -37 -12 -65 0 -15 7 -10 9 23 9 23 1 42 -3 42 -9z
m185 0 c3 -5 2 -10 -4 -10 -5 0 -13 5 -16 10 -3 6 -2 10 4 10 5 0 13 -4 16
-10z"/>
<path d="M803 3333 c15 -2 37 -2 50 0 12 2 0 4 -28 4 -27 0 -38 -2 -22 -4z"/>
<path d="M1188 3313 c12 -2 32 -2 45 0 12 2 2 4 -23 4 -25 0 -35 -2 -22 -4z"/>
<path d="M2071 3931 c83 -41 167 -89 227 -129 28 -19 54 -33 57 -30 3 3 -28
27 -70 54 -41 27 -75 52 -75 56 0 3 26 23 57 42 48 30 53 36 32 36 -14 0 -47
-14 -73 -31 l-49 -30 -69 30 c-85 38 -113 40 -37 2z"/>
<path d="M2406 3916 c45 -24 108 -62 140 -84 80 -54 220 -178 272 -240 43 -50
43 -51 21 -63 -35 -18 -204 -7 -229 16 -19 18 -20 17 -20 -5 0 -17 -4 -21 -17
-15 -10 4 -109 15 -221 26 l-204 18 -71 54 c-40 29 -85 61 -101 71 l-28 18
106 71 c71 47 103 74 97 80 -7 7 -28 -1 -63 -23 -29 -18 -69 -42 -88 -52 -19
-11 -46 -28 -59 -38 -23 -16 -27 -16 -105 17 -103 44 -178 68 -291 93 -106 24
-125 25 -125 5 0 -14 12 -18 130 -44 107 -24 180 -50 280 -99 l55 -28 3 -52 3
-52 -38 1 c-21 0 -127 8 -235 17 l-198 17 0 -152 0 -153 59 0 c88 0 91 -7 90
-200 -2 -175 -5 -172 -22 20 l-12 135 -57 3 -58 3 0 -335 c0 -294 2 -335 15
-330 9 4 15 0 15 -10 0 -9 -7 -16 -15 -16 -13 0 -15 -36 -15 -264 l0 -263 68
4 c37 2 73 6 80 8 8 3 12 38 13 122 l2 118 11 -120 11 -120 130 -1 c72 -1 176
1 233 4 l102 4 1 117 2 116 7 -93 c13 -155 4 -144 118 -138 53 3 100 5 105 5
4 1 8 90 9 199 l2 197 6 -195 c4 -107 8 -196 9 -198 0 -2 40 -2 88 -1 67 1 91
6 100 18 11 14 15 13 32 -9 31 -40 12 -50 -93 -50 -50 0 -121 -3 -159 -7 -60
-5 -68 -9 -73 -29 -3 -13 -10 -22 -14 -19 -20 12 -28 -73 -9 -92 28 -28 -9
-36 -233 -47 l-88 -4 0 84 c0 67 -3 86 -15 91 -9 3 -96 2 -193 -3 l-177 -9 -3
-87 -3 -87 -34 -7 -35 -6 0 -69 0 -69 34 0 35 0 7 69 c5 54 10 70 24 74 17 4
164 10 290 11 l65 1 3 -64 3 -63 97 6 c53 3 104 6 112 7 8 0 26 3 40 5 l25 6
-25 13 c-17 9 -29 10 -37 3 -9 -7 -11 -4 -10 11 1 19 8 21 67 23 76 2 82 2
138 -8 35 -5 42 -4 42 10 0 14 17 16 133 16 72 0 169 3 215 7 l83 6 -7 -53 -7
-53 91 6 c64 4 91 2 89 -6 -1 -7 12 -10 34 -8 26 2 38 -2 42 -13 9 -22 97 -23
97 -1 0 9 -9 15 -22 15 -23 0 -22 1 2 13 l25 13 -2 189 c-1 130 1 177 7 150 5
-22 9 -56 9 -76 1 -50 26 -59 45 -16 l14 32 1 -46 c1 -25 4 -74 7 -108 6 -54
9 -61 29 -61 18 0 22 -6 23 -31 0 -17 9 -37 19 -45 22 -16 33 -18 33 -4 0 13
37 13 99 -2 44 -10 50 -14 45 -31 -5 -16 -3 -19 12 -13 11 4 34 17 52 29 33
22 34 23 29 81 -3 33 -11 62 -19 67 -10 7 -10 11 0 21 8 8 12 57 13 157 1 121
3 136 10 86 10 -76 14 -93 21 -101 4 -3 4 -12 1 -20 -3 -8 1 -14 11 -14 12 0
16 -10 16 -42 0 -54 7 -63 50 -64 19 -1 85 -4 147 -7 65 -3 113 -2 115 4 2 5
47 9 100 10 54 0 121 4 151 8 60 8 77 5 77 -13 0 -27 -35 -44 -90 -44 -30 -1
-92 -4 -137 -8 l-83 -6 0 -75 0 -75 -67 7 c-38 3 -83 8 -100 11 l-33 5 0 -66
0 -65 33 0 c19 0 56 -7 83 -15 82 -25 84 -24 84 49 l0 64 53 5 c28 4 92 9 140
13 l88 6 -4 48 c-3 26 -7 53 -11 58 -8 13 20 42 40 42 10 0 14 14 14 54 0 30
4 57 8 60 5 3 64 8 130 12 l122 7 0 -51 c0 -28 5 -54 10 -57 6 -4 10 17 10 54
0 34 -4 61 -10 61 -5 0 -10 28 -12 63 l-3 62 -125 0 -125 0 -3 -72 -3 -73
-114 0 -115 0 0 45 c0 30 -5 47 -14 51 -8 3 -16 14 -19 26 -5 19 -10 20 -136
13 -135 -8 -167 -1 -154 31 4 10 22 14 63 14 31 0 105 3 163 7 82 5 107 9 107
20 0 8 5 11 11 7 9 -5 11 60 7 257 -3 145 -4 237 -2 204 2 -33 8 -147 14 -254
6 -107 16 -203 21 -214 10 -17 18 -19 77 -13 37 4 87 7 112 7 25 0 60 2 78 5
l32 5 -1 132 c0 73 -6 294 -13 492 -7 198 -9 364 -5 369 18 21 28 -44 33 -229
14 -467 18 -555 27 -654 5 -58 13 -109 17 -113 5 -5 27 -6 50 -2 l42 7 0 607
0 608 -27 6 c-16 3 -64 8 -108 11 -44 4 -96 8 -115 10 -19 3 -93 9 -165 15
-114 10 -135 14 -167 37 -21 14 -38 29 -38 34 0 4 -8 10 -17 14 -10 3 -31 16
-47 29 l-28 23 143 47 c79 26 158 53 174 61 66 30 -18 15 -188 -35 l-172 -50
-105 47 c-58 25 -106 47 -108 48 -2 2 28 23 65 47 205 133 381 170 623 133
161 -24 255 -65 184 -79 -10 -2 -64 -19 -119 -37 -140 -46 -87 -49 61 -4 66
21 127 39 137 42 14 5 17 18 17 94 l0 90 -502 -3 -503 -3 -231 -111 -230 -111
-111 114 -111 113 -248 0 -249 0 81 -44z m-433 -268 c18 -12 34 -25 37 -28 3
-3 17 -11 33 -19 40 -21 34 -26 -25 -23 -90 5 -96 8 -92 44 1 18 3 36 3 41 1
12 11 8 44 -15z m1598 -27 c30 -10 78 -30 107 -45 l52 -26 0 -53 0 -52 -152
12 c-84 6 -168 12 -185 12 -21 1 -33 6 -33 15 0 18 128 156 144 156 7 0 37 -8
67 -19z m300 -164 l34 -29 -34 6 c-18 3 -51 6 -72 6 l-39 0 0 46 0 45 38 -23
c21 -13 54 -36 73 -51z m-716 43 c16 -7 12 -9 -18 -9 -23 -1 -36 3 -32 9 7 12
23 12 50 0z m-1294 -210 c20 -5 -16 -6 -91 -3 -69 3 -141 9 -160 14 -22 5 13
6 91 3 69 -3 141 -10 160 -14z m126 -6 c-3 -3 -12 -4 -19 -1 -8 3 -5 6 6 6 11
1 17 -2 13 -5z m1201 -11 c-3 -15 -18 -25 -78 -53 -8 -4 -16 -17 -18 -29 -3
-20 -2 -21 17 -9 17 10 25 10 42 0 12 -7 24 -11 27 -7 4 3 1 9 -6 14 -8 5 -6
12 8 24 25 21 27 21 33 -2 3 -12 -1 -22 -9 -25 -8 -3 -14 -19 -14 -36 0 -33
15 -40 25 -11 3 10 14 26 25 36 27 25 54 3 46 -37 -6 -32 3 -35 42 -11 l27 16
-22 -23 c-23 -24 -97 -37 -108 -19 -3 4 -12 6 -20 2 -9 -3 -21 0 -29 6 -10 9
-21 8 -41 -1 -25 -11 -29 -10 -43 10 l-15 23 -24 -36 c-13 -19 -30 -35 -38
-35 -8 0 -15 -4 -15 -9 0 -5 -3 -18 -6 -28 -5 -17 -5 -17 6 0 15 23 40 22 40
-2 0 -11 6 -21 12 -23 10 -4 10 -10 0 -32 -9 -20 -18 -27 -35 -24 -14 2 -26
-4 -32 -16 -14 -27 -35 -32 -41 -9 -3 11 -21 26 -39 35 -32 14 -35 14 -40 -3
-8 -25 -56 -25 -79 0 -14 15 -15 25 -5 70 13 62 45 90 83 73 24 -11 40 -48 25
-58 -16 -10 -48 6 -42 22 4 10 0 12 -11 8 -18 -7 -29 -41 -24 -75 4 -28 28
-38 28 -12 0 21 71 58 95 50 17 -7 49 39 41 60 -9 23 12 53 37 52 l22 0 -23
-11 c-26 -13 -26 -41 0 -46 19 -4 51 50 62 105 7 29 5 32 -24 38 -24 5 -35 3
-45 -12 -13 -16 -14 -16 -15 -1 0 28 31 38 79 26 35 -9 49 -8 79 6 28 14 33
20 21 27 -11 7 -11 9 4 9 12 0 17 -6 15 -17z m-1408 -3 l75 -7 -90 -1 c-49 0
-110 3 -135 7 l-45 8 60 0 c33 0 94 -3 135 -7z m273 -13 c7 -26 11 -516 4
-523 -2 -2 -7 55 -10 128 -19 387 -20 418 -10 418 6 0 13 -10 16 -23z m-50 -4
c-13 -2 -33 -2 -45 0 -13 2 -3 4 22 4 25 0 35 -2 23 -4z m150 -10 c-13 -2 -35
-2 -50 0 -16 2 -5 4 22 4 28 0 40 -2 28 -4z m361 -123 c4 -66 10 -591 7 -659
-1 -8 -4 -11 -8 -7 -4 3 -8 88 -9 189 -1 100 -5 264 -9 364 -6 156 -3 215 10
201 1 -2 5 -41 9 -88z m1222 41 c-4 -5 -21 -7 -39 -4 -47 7 -46 13 2 13 23 0
40 -4 37 -9z m274 -17 c6 -14 10 -96 10 -182 0 -137 -2 -154 -14 -132 -8 16
-14 68 -15 150 -1 69 -4 140 -7 158 -8 39 12 44 26 6z m-143 9 c-20 -2 -52 -2
-70 0 -17 2 0 4 38 4 39 0 53 -2 32 -4z m403 3 c0 -3 -27 -10 -60 -17 -57 -11
-60 -13 -60 -40 0 -16 -5 -29 -11 -29 -6 0 -9 14 -7 32 3 31 6 33 58 44 65 14
80 16 80 10z m-317 -13 c-7 -2 -21 -2 -30 0 -10 3 -4 5 12 5 17 0 24 -2 18 -5z
m-815 -86 c2 -15 8 -27 14 -27 6 0 8 -10 4 -26 -5 -18 -2 -32 10 -45 16 -17
16 -19 -2 -26 -10 -4 -19 -2 -22 5 -2 7 -15 9 -31 6 -37 -8 -46 9 -27 48 9 17
16 43 16 58 0 48 33 54 38 7z m133 13 c22 -12 25 -41 7 -70 -10 -16 -10 -24 0
-40 17 -28 7 -40 -33 -40 -34 0 -54 14 -35 25 16 10 12 55 -5 55 -18 0 -19 14
-4 43 20 37 37 44 70 27z m139 -35 c7 -8 18 -15 24 -15 6 0 20 -10 30 -22 28
-32 10 -53 -45 -53 -24 0 -49 -6 -54 -13 -8 -10 -17 -10 -43 4 -40 19 -48 35
-32 63 7 14 21 21 39 21 16 0 34 7 41 15 7 8 16 15 20 15 4 0 13 -7 20 -15z
m140 -260 c0 -25 -4 -45 -10 -45 -5 0 -10 20 -10 45 0 25 5 45 10 45 6 0 10
-20 10 -45z m-1873 -177 c-3 -8 -6 -5 -6 6 -1 11 2 17 5 13 3 -3 4 -12 1 -19z
m329 11 c3 -6 15 -9 25 -6 10 3 22 1 25 -4 3 -5 -18 -9 -45 -9 -48 0 -67 12
-38 23 19 8 25 8 33 -4z m-366 -24 c0 -8 -3 -15 -6 -15 -3 0 -12 7 -20 15 -14
13 -13 15 5 15 12 0 21 -6 21 -15z m699 -2 c0 -10 -3 -13 -5 -6 -3 7 -11 10
-19 7 -7 -3 -16 -1 -20 5 -4 7 4 11 19 11 18 0 26 -5 25 -17z m419 -128 c0
-14 -4 -28 -9 -31 -5 -3 -9 1 -9 10 0 8 -3 21 -6 30 -4 10 -1 16 9 16 9 0 15
-10 15 -25z m-1118 -1 c0 -8 -5 -12 -10 -9 -6 4 -8 11 -5 16 9 14 15 11 15 -7z
m3 -373 c-9 -14 -12 20 -13 149 -2 209 3 223 10 25 3 -93 4 -172 3 -174z m434
247 c-3 -7 -5 -2 -5 12 0 14 2 19 5 13 2 -7 2 -19 0 -25z m-490 0 c-3 -8 -6
-5 -6 6 -1 11 2 17 5 13 3 -3 4 -12 1 -19z m1176 -25 c-16 -13 -17 -14 -1 -9
22 7 35 -12 14 -20 -27 -10 -44 2 -39 29 4 19 10 23 24 20 19 -5 19 -6 2 -20z
m1254 -70 c-2 -16 -4 -5 -4 22 0 28 2 40 4 28 2 -13 2 -35 0 -50z m-490 -15
c-3 -8 -6 -5 -6 6 -1 11 2 17 5 13 3 -3 4 -12 1 -19z m-420 -75 c-2 -16 -4 -5
-4 22 0 28 2 40 4 28 2 -13 2 -35 0 -50z m190 -8 c-3 -20 -17 -49 -30 -65 -14
-16 -27 -33 -29 -38 -1 -5 -13 -12 -24 -16 l-21 -7 18 58 c20 60 52 103 77
103 11 0 13 -8 9 -35z m81 -112 c-10 -2 -28 -2 -40 0 -13 2 -5 4 17 4 22 1 32
-1 23 -4z m-640 -189 c-2 -2 -14 -1 -26 2 -20 6 -21 10 -15 68 3 33 11 72 16
86 9 21 12 11 19 -64 5 -49 7 -90 6 -92z m342 70 c0 -8 -4 -12 -10 -9 -5 3
-10 10 -10 16 0 5 5 9 10 9 6 0 10 -7 10 -16z m-777 -91 c-7 -2 -19 -2 -25 0
-7 3 -2 5 12 5 14 0 19 -2 13 -5z"/>
<path d="M3114 3155 c-3 -8 -4 -20 -2 -27 3 -7 7 -1 10 15 6 29 1 36 -8 12z"/>
<path d="M3240 3030 c0 -24 15 -27 24 -4 9 22 8 24 -9 24 -8 0 -15 -9 -15 -20z"/>
<path d="M4550 3868 l0 -93 92 -55 c69 -41 123 -85 210 -172 65 -64 118 -121
118 -126 0 -5 -36 -19 -80 -31 -78 -21 -164 -23 -302 -5 l-38 4 0 -134 c0 -98
3 -136 13 -139 10 -4 10 -6 0 -6 -10 -1 -13 -103 -13 -476 0 -408 2 -475 15
-475 7 0 19 8 24 18 10 16 10 16 11 0 0 -15 10 -17 71 -16 l71 2 -6 135 c-16
363 -29 832 -23 838 20 19 32 -25 34 -125 7 -285 24 -762 29 -799 l6 -43 132
3 131 2 0 150 c0 83 -3 296 -7 475 -4 179 -5 318 -1 310 3 -8 10 -18 15 -21 5
-3 13 -170 18 -370 10 -382 17 -518 28 -536 4 -7 25 -9 55 -6 39 5 47 9 47 26
0 16 3 18 12 9 7 -7 25 -12 42 -12 l29 0 -5 273 c-3 149 -2 241 2 202 4 -38 9
-140 10 -225 2 -104 5 -140 10 -110 8 50 8 49 19 -69 8 -81 17 -100 49 -101 6
0 12 8 12 18 0 11 11 24 25 30 14 6 25 18 25 27 0 8 4 15 8 15 12 0 13 -58 2
-65 -4 -3 -11 -22 -15 -43 -4 -27 -11 -39 -23 -39 -9 0 -19 3 -22 6 -3 3 -36
5 -74 3 -58 -3 -69 -7 -73 -23 -4 -13 -11 -18 -20 -15 -8 3 -32 3 -54 0 -30
-5 -43 -14 -54 -34 -10 -19 -11 -30 -4 -37 14 -14 2 -20 -46 -24 l-40 -4 -5
60 -5 60 -115 0 -115 0 -3 -60 c-2 -33 -9 -63 -15 -67 -7 -4 -56 -8 -109 -8
l-98 0 0 -61 0 -61 108 7 c59 4 108 8 110 10 1 1 4 23 6 49 2 26 5 48 7 51 3
2 54 7 114 11 l110 6 11 -30 c11 -29 12 -30 59 -21 26 5 89 8 139 7 108 -3
136 5 133 35 -2 19 3 22 28 21 50 -3 51 -4 20 -22 l-30 -16 70 -9 c68 -8 145
-5 234 9 49 7 65 -6 50 -40 -9 -20 -18 -21 -152 -22 -78 0 -159 -4 -179 -8
l-38 -7 0 -65 0 -66 -37 4 c-31 2 -38 0 -37 -15 0 -9 1 -33 2 -53 2 -34 4 -35
35 -32 30 3 32 5 35 49 l3 46 82 6 c45 4 124 7 175 7 l92 0 0 -50 0 -50 43 0
c23 0 52 3 65 6 l22 6 0 908 c0 855 -1 908 -17 916 -10 4 -24 6 -30 5 -7 -1
-13 5 -13 14 0 10 -5 13 -12 9 -6 -4 -8 -3 -5 3 4 6 0 19 -8 29 -14 18 -14 17
-15 -11 -1 -44 -20 -70 -20 -27 0 17 -4 32 -10 32 -5 0 -11 -15 -11 -32 -2
-31 -2 -31 -6 -5 -5 34 -23 36 -23 2 0 -31 -25 -33 -34 -3 -4 18 4 31 42 64
26 23 67 60 92 83 25 22 48 41 52 41 5 0 8 7 8 16 0 15 -46 -18 -124 -91 -47
-43 -127 -105 -137 -105 -4 0 -6 7 -2 16 5 14 2 16 -20 10 -26 -6 -39 8 -15
16 9 3 8 12 -5 31 -12 18 -13 26 -5 25 19 -4 38 -25 38 -42 0 -9 7 -16 15 -16
18 0 65 43 65 59 0 6 11 13 25 17 20 5 23 9 15 19 -8 10 -7 16 5 23 15 8 14
11 -8 29 -20 15 -23 23 -14 32 17 17 -15 14 -39 -4 -13 -10 -15 -14 -5 -15 25
0 3 -12 -31 -17 -27 -3 -41 2 -69 26 -30 26 -35 28 -41 13 -6 -16 -7 -16 -7 0
-1 9 -6 20 -12 24 -9 5 -10 -1 -5 -20 4 -15 2 -26 -4 -26 -5 0 -10 5 -10 11 0
5 -4 7 -10 4 -5 -3 -15 7 -21 22 -6 15 -15 36 -21 46 -5 11 -7 21 -4 24 3 3 8
-2 12 -11 8 -20 28 -21 48 0 9 8 20 12 26 9 6 -3 10 4 10 18 0 15 -9 28 -25
37 -29 16 -25 26 18 40 30 9 29 10 -15 6 -36 -3 -45 0 -41 10 3 8 0 14 -6 14
-6 0 -11 -4 -11 -10 0 -16 -50 -7 -51 10 -1 8 -4 4 -8 -10 -5 -16 -14 -24 -25
-23 -14 1 -16 -4 -12 -25 l6 -27 -14 24 c-13 24 -46 38 -46 20 0 -5 -9 -9 -20
-9 -24 0 -26 -13 -5 -30 8 -7 15 -17 15 -23 0 -6 -11 0 -25 13 -26 25 -32 21
-15 -11 10 -17 8 -18 -17 -8 -15 5 -32 14 -38 19 -5 4 -26 10 -45 12 -33 3
-35 6 -40 43 -3 27 -10 41 -22 43 -10 2 -18 -1 -18 -7 0 -8 -6 -7 -19 1 -14 9
-26 8 -50 -2 -17 -7 -31 -17 -31 -22 0 -5 9 -4 21 2 21 12 49 -1 49 -23 0 -5
-8 -3 -17 6 -15 12 -20 13 -30 2 -10 -10 -9 -14 2 -19 24 -9 17 -26 -10 -26
-14 0 -25 -5 -25 -11 0 -6 7 -8 16 -5 8 3 13 2 10 -3 -3 -5 1 -14 9 -21 19
-16 19 -26 0 -34 -20 -7 -207 93 -280 149 -10 8 -38 15 -62 15 l-43 0 0 -92z
m421 -106 c8 -21 8 -22 -16 -6 -29 19 -33 33 -8 30 9 -2 20 -12 24 -24z m374
-12 c3 -5 2 -10 -4 -10 -5 0 -13 5 -16 10 -3 6 -2 10 4 10 5 0 13 -4 16 -10z
m-1 -36 c9 -24 7 -28 -9 -14 -17 14 -20 30 -6 30 5 0 12 -7 15 -16z m-9 -34
c10 -11 14 -20 8 -20 -5 0 -18 9 -28 20 -10 11 -14 20 -8 20 5 0 18 -9 28 -20z
m-327 -307 c2 -9 -10 -13 -42 -13 -50 0 -63 16 -18 23 40 6 55 4 60 -10z m552
-314 c0 -5 -12 -4 -26 1 -23 9 -26 8 -20 -7 4 -12 0 -11 -10 5 -9 12 -22 22
-30 22 -7 0 -15 4 -18 9 -3 4 19 1 49 -7 30 -8 55 -19 55 -23z m-103 -11 c-3
-8 -6 -5 -6 6 -1 11 2 17 5 13 3 -3 4 -12 1 -19z m184 0 c22 -6 39 -14 39 -17
0 -3 -24 -7 -53 -7 -28 -1 -42 0 -29 3 12 2 22 8 22 13 0 5 -10 11 -22 13 -13
2 -17 5 -9 6 7 0 31 -4 52 -11z m-71 -29 c0 -7 -60 -19 -97 -19 -13 0 -23 5
-23 11 0 5 4 7 10 4 5 -3 18 -1 27 4 19 11 83 11 83 0z m-293 -196 c-2 -32 -3
-6 -3 57 0 63 1 89 3 58 2 -32 2 -84 0 -115z m285 -818 c3 -14 2 -28 -2 -30
-8 -5 -20 28 -20 53 0 22 17 4 22 -23z"/>
<path d="M160 3946 c0 -2 7 -7 16 -10 8 -3 12 -2 9 4 -6 10 -25 14 -25 6z"/>
<path d="M107 3933 c-4 -3 -7 -17 -7 -30 0 -18 -5 -23 -25 -23 -14 0 -25 -4
-25 -10 0 -5 5 -10 10 -10 6 0 10 -14 10 -31 0 -20 4 -29 13 -26 7 2 11 16 9
35 -3 31 11 44 22 20 3 -7 4 8 3 34 -1 27 -2 48 -3 48 0 0 -4 -3 -7 -7z"/>
<path d="M150 3910 c-9 -6 -10 -10 -3 -10 6 0 15 5 18 10 8 12 4 12 -15 0z"/>
<path d="M2400 3737 c0 -2 28 -28 63 -57 34 -30 51 -41 37 -26 -26 29 -100 91
-100 83z"/>
<path d="M1435 3300 c19 -8 113 -14 104 -6 -2 2 -31 6 -64 9 -38 4 -53 3 -40
-3z"/>
<path d="M1 3150 c0 -33 1 -34 10 -11 6 16 6 28 -1 35 -7 7 -10 -1 -9 -24z"/>
<path d="M598 2593 c6 -2 18 -2 25 0 6 3 1 5 -13 5 -14 0 -19 -2 -12 -5z"/>
<path d="M860 2590 c-24 -8 -23 -8 8 -9 20 -1 31 3 27 9 -3 6 -7 10 -8 9 -1
-1 -13 -5 -27 -9z"/>
<path d="M553 2563 c15 -2 39 -2 55 0 15 2 2 4 -28 4 -30 0 -43 -2 -27 -4z"/>
<path d="M703 2563 c26 -2 68 -2 95 0 26 2 4 3 -48 3 -52 0 -74 -1 -47 -3z"/>
<path d="M888 2563 c12 -2 30 -2 40 0 9 3 -1 5 -23 4 -22 0 -30 -2 -17 -4z"/>
<path d="M2525 1739 c-149 -12 -153 -14 -158 -57 -3 -20 -5 -59 -6 -86 l-1
-48 53 6 c28 3 110 8 180 12 l128 7 -3 84 -3 85 -50 2 c-27 1 -90 -2 -140 -5z"/>
<path d="M3473 1673 c-25 -17 -28 -34 -13 -63 13 -24 53 -15 45 10 -3 11 1 20
10 24 20 7 19 32 -1 40 -19 7 -14 8 -41 -11z"/>
<path d="M192 1620 c0 -14 2 -19 5 -12 2 6 2 18 0 25 -3 6 -5 1 -5 -13z"/>
<path d="M527 1634 c-2 -3 -49 -7 -103 -10 -54 -3 -100 -7 -100 -8 -1 0 -5
-45 -9 -99 l-7 -98 83 5 c289 20 384 28 391 32 11 7 10 46 -3 118 l-12 62
-118 1 c-65 0 -120 -1 -122 -3z"/>
<path d="M5821 1614 c0 -11 3 -14 6 -6 3 7 2 16 -1 19 -3 4 -6 -2 -5 -13z"/>
<path d="M184 1579 c-3 -6 -1 -16 5 -22 8 -8 11 -5 11 11 0 24 -5 28 -16 11z"/>
<path d="M2310 1497 c0 -71 3 -77 31 -70 18 5 20 13 17 67 -3 55 -5 61 -25 64
-22 3 -23 0 -23 -61z"/>
<path d="M5810 1520 c-8 -5 -28 -10 -45 -10 -16 0 -41 -7 -54 -14 -15 -8 -37
-10 -62 -6 -21 4 -42 4 -46 0 -4 -5 -64 -10 -133 -12 -69 -2 -134 -9 -145 -15
-26 -15 -74 -26 -105 -25 l-25 1 27 -11 c33 -14 45 -38 19 -38 -11 0 -28 -3
-38 -6 -12 -5 -15 -4 -8 4 6 5 19 12 30 15 13 3 9 5 -12 6 -18 0 -33 5 -33 10
0 5 -10 8 -22 6 -175 -21 -260 -26 -253 -15 7 12 -150 11 -197 -2 -42 -10 -51
-10 -59 2 -8 11 -12 12 -16 3 -2 -8 -22 -13 -44 -13 l-39 0 0 -265 0 -265 640
0 640 0 0 330 c0 182 -1 330 -2 330 -2 0 -10 -5 -18 -10z m-407 -107 c-7 -2
-21 -2 -30 0 -10 3 -4 5 12 5 17 0 24 -2 18 -5z m-246 -9 c-3 -3 -12 -4 -19
-1 -8 3 -5 6 6 6 11 1 17 -2 13 -5z"/>
<path d="M243 1513 c-9 -3 -13 -34 -13 -106 0 -131 5 -149 34 -136 42 19 51
156 13 184 -9 6 -17 22 -19 36 -2 15 -8 24 -15 22z"/>
<path d="M3205 1513 c-119 -8 -284 -23 -315 -30 -28 -5 -31 -8 -15 -13 11 -4
25 -4 30 0 6 5 35 5 65 1 40 -6 50 -10 37 -16 -10 -4 -35 -5 -55 -2 -25 4 -32
3 -21 -3 29 -17 90 -20 95 -5 3 7 14 11 24 8 10 -3 27 0 39 6 16 9 21 9 21 -1
0 -8 3 -9 8 -3 9 13 65 19 58 6 -11 -18 26 -20 95 -6 39 8 76 18 81 21 6 4 14
1 18 -6 6 -9 14 -8 34 5 15 10 25 23 23 29 -4 11 -122 16 -222 9z m70 -33 c-3
-5 -17 -10 -30 -10 -13 0 -27 5 -30 10 -4 6 8 10 30 10 22 0 34 -4 30 -10z"/>
<path d="M3428 1479 c-26 -15 -22 -24 12 -26 17 -1 28 2 25 7 -3 5 4 12 17 14
13 3 32 7 43 9 11 3 -2 5 -30 6 -27 0 -58 -4 -67 -10z"/>
<path d="M12 1435 c9 -10 21 -16 28 -13 7 2 -1 10 -16 17 -27 12 -28 11 -12
-4z"/>
<path d="M44 1398 c3 -11 -2 -22 -14 -28 -29 -15 -25 -32 5 -24 18 4 32 1 46
-12 17 -16 22 -16 29 -4 6 8 10 24 10 35 0 15 -3 16 -12 7 -15 -15 -32 -16
-23 -2 3 6 -2 13 -12 17 -10 4 -22 11 -26 17 -6 7 -7 4 -3 -6z"/>
<path d="M4305 1400 c-3 -5 -20 -10 -36 -10 -49 0 -157 -31 -163 -46 -4 -12 3
-14 34 -12 22 1 42 -1 46 -4 9 -9 -102 -21 -130 -14 -13 3 -26 3 -28 -2 -2 -4
-30 -6 -62 -4 -39 3 -54 7 -45 13 10 6 4 9 -18 9 -22 0 -33 -5 -33 -14 0 -18
-29 -29 -44 -17 -6 5 -56 12 -111 16 -54 3 -101 9 -104 14 -10 14 -74 19 -101
8 -14 -5 -33 -11 -43 -12 -10 -1 -25 -11 -33 -23 -12 -17 -21 -20 -46 -15 -22
4 -29 3 -24 -5 10 -16 -50 -16 -109 0 -50 14 -82 3 -77 -25 1 -10 -9 -17 -33
-21 -19 -4 -39 -14 -44 -23 -7 -13 -26 -18 -70 -20 -33 -1 -78 -6 -98 -9 -21
-4 -64 -7 -95 -7 -44 -1 -55 -4 -47 -13 7 -9 3 -13 -18 -17 -53 -9 -136 -8
-142 1 -4 6 -31 6 -71 1 -81 -12 -102 -18 -95 -30 4 -5 1 -9 -4 -9 -6 0 -11
-5 -11 -11 0 -6 7 -9 15 -6 8 4 17 2 20 -3 6 -10 -12 -13 -79 -11 -22 0 -45
-4 -51 -9 -14 -12 -96 -10 -89 1 5 9 -123 3 -149 -7 -10 -4 -35 -2 -55 4 -29
9 -48 8 -82 -2 -31 -9 -60 -11 -95 -5 -74 12 -85 11 -79 -6 5 -11 -3 -14 -38
-14 -55 1 -175 -19 -201 -33 -16 -8 -23 -7 -32 5 -11 15 -28 16 -102 8 -9 -1
-13 -23 -13 -76 l0 -75 1545 0 1545 0 0 268 0 268 -72 -8 c-40 -4 -84 -10 -96
-13 -14 -3 -21 -2 -18 4 4 5 2 12 -3 15 -5 4 -12 2 -16 -4z m-780 -100 c3 -5
2 -10 -4 -10 -5 0 -13 5 -16 10 -3 6 -2 10 4 10 5 0 13 -4 16 -10z m-355 -80
c0 -5 -10 -10 -22 -10 -19 0 -20 2 -8 10 19 13 30 13 30 0z m-535 -169 c22 -6
-2 -8 -87 -7 -65 0 -118 2 -118 3 0 1 15 6 33 11 37 10 129 7 172 -7z m-280
-20 c2 -4 -9 -5 -26 -3 -16 2 -29 8 -29 12 0 9 48 1 55 -9z m-489 -16 c-15 -8
-33 -12 -39 -8 -7 4 -2 10 13 14 44 12 56 9 26 -6z m-56 1 c0 -2 -7 -6 -15
-10 -8 -3 -15 -1 -15 4 0 6 7 10 15 10 8 0 15 -2 15 -4z m-87 -13 c-7 -2 -19
-2 -25 0 -7 3 -2 5 12 5 14 0 19 -2 13 -5z"/>
<path d="M3817 1348 c-8 -5 -6 -8 6 -8 9 0 17 -7 17 -15 0 -8 5 -15 10 -15 6
0 10 7 10 15 0 9 9 15 24 15 14 0 27 3 29 8 7 9 -81 10 -96 0z"/>
<path d="M4030 1350 c0 -5 5 -10 10 -10 6 0 10 5 10 10 0 6 -4 10 -10 10 -5 0
-10 -4 -10 -10z"/>
<path d="M3633 1343 c9 -2 25 -2 35 0 9 3 1 5 -18 5 -19 0 -27 -2 -17 -5z"/>
<path d="M3970 1340 c-37 -8 -32 -14 10 -10 14 1 29 6 35 11 10 10 7 10 -45
-1z"/>
<path d="M3690 1330 c0 -5 5 -10 10 -10 6 0 10 5 10 10 0 6 -4 10 -10 10 -5 0
-10 -4 -10 -10z"/>
<path d="M115 1301 c-2 -4 9 -15 24 -24 28 -16 29 -16 29 7 0 18 -6 24 -24 24
-14 0 -26 -4 -29 -7z"/>
<path d="M190 1243 c0 -12 5 -25 10 -28 13 -8 13 15 0 35 -8 12 -10 11 -10 -7z"/>
<path d="M1776 1091 c-11 -4 -15 -10 -10 -14 14 -8 54 3 54 14 0 11 -17 11
-44 0z"/>
<path d="M1847 1092 c-9 -4 12 -7 47 -7 35 0 68 3 72 8 9 9 -95 8 -119 -1z"/>
<path d="M1580 1060 c0 -5 5 -10 10 -10 6 0 10 5 10 10 0 6 -4 10 -10 10 -5 0
-10 -4 -10 -10z"/>
<path d="M390 1020 c0 -5 5 -10 10 -10 6 0 10 5 10 10 0 6 -4 10 -10 10 -5 0
-10 -4 -10 -10z"/>
<path d="M813 1000 c-6 -24 -12 -25 -28 -3 -12 16 -17 16 -65 -12 l-24 -14 21
-8 c15 -6 20 -12 14 -22 -7 -11 -13 -9 -30 8 -19 19 -26 20 -62 11 -38 -11
-64 -6 -55 9 3 4 -19 6 -47 5 -32 -1 -61 4 -75 14 -12 8 -25 12 -29 9 -11 -11
18 -36 50 -42 18 -4 47 -16 66 -28 28 -17 31 -21 17 -29 -10 -5 -47 -8 -84 -5
-60 3 -67 6 -73 28 -4 13 -7 18 -8 10 -1 -7 -7 -11 -16 -8 -8 4 -17 2 -20 -2
-2 -5 4 -11 15 -14 11 -3 20 -12 20 -21 0 -14 48 -16 490 -16 l490 0 0 75 c0
58 -3 75 -14 75 -8 0 -16 -6 -19 -12 -3 -10 -33 -12 -123 -9 -65 2 -137 5
-159 5 -22 1 -45 4 -51 8 -7 4 -17 1 -24 -7 -10 -12 -10 -15 3 -15 10 0 13 -6
10 -20 -3 -12 0 -20 8 -20 7 0 9 -3 6 -7 -4 -3 1 -12 11 -20 9 -8 2 -6 -15 3
-18 10 -33 22 -33 27 0 4 -4 5 -10 2 -5 -3 -10 -1 -10 5 0 7 -7 10 -15 6 -8
-3 -31 2 -51 10 -29 12 -34 17 -24 29 11 13 7 15 -20 15 -23 0 -33 -5 -37 -20z
m327 -19 c0 -14 -59 -41 -76 -34 -7 3 -14 -1 -14 -8 0 -7 -3 -9 -7 -6 -7 8 24
41 47 50 24 9 50 8 50 -2z m-310 -42 c13 -7 13 -8 0 -9 -27 0 -60 12 -60 22 0
9 33 3 60 -13z"/>
<path d="M73 883 c9 -9 20 -13 24 -9 4 4 1 11 -7 16 -25 16 -35 11 -17 -7z"/>
<path d="M298 893 c-34 -9 -18 -23 22 -21 35 3 38 5 23 16 -9 6 -19 11 -22 11
-3 -1 -14 -3 -23 -6z"/>
<path d="M1 544 l-1 -291 70 -32 c61 -29 74 -31 102 -22 39 14 95 14 103 1 4
-6 30 -24 58 -40 29 -16 85 -59 124 -95 l73 -66 347 4 c348 5 420 11 481 45
l22 13 0 384 0 385 -555 0 c-410 0 -554 -4 -549 -12 5 -8 -4 -9 -32 -4 -124
24 -175 15 -153 -25 7 -15 6 -19 -4 -19 -8 0 -17 9 -20 20 -3 13 -14 20 -30
20 -14 0 -28 6 -30 13 -3 6 -6 -119 -6 -279z"/>
<path d="M1420 444 l0 -386 23 6 c12 4 40 10 62 13 22 3 49 14 60 24 50 45
217 30 291 -27 18 -13 51 -28 75 -33 24 -5 49 -17 55 -25 10 -14 49 -16 293
-16 251 0 289 2 353 20 40 11 83 20 95 20 13 0 32 6 44 12 18 12 24 9 49 -19
31 -35 45 -39 82 -24 13 6 39 12 59 16 20 3 50 18 66 33 61 59 239 172 270
172 13 0 37 9 55 20 18 11 42 20 54 20 11 0 33 14 49 30 20 21 38 30 60 30 17
0 36 5 41 10 8 8 32 8 79 0 58 -9 71 -8 93 6 20 13 31 14 61 6 20 -6 61 -13
91 -15 30 -3 62 -8 72 -11 13 -6 17 1 23 34 7 40 7 40 41 34 21 -4 40 -2 48 6
11 9 20 9 36 0 26 -14 30 -10 50 42 14 37 18 40 55 42 22 1 53 9 69 18 26 14
33 13 79 -4 41 -15 56 -17 75 -8 20 9 27 8 37 -7 47 -65 44 -73 45 145 l0 202
-1545 0 -1545 0 0 -386z"/>
<path d="M4550 628 c0 -112 4 -208 8 -214 4 -6 19 -14 33 -17 15 -4 72 -50
128 -102 100 -93 128 -108 149 -82 17 20 102 13 152 -13 46 -25 73 -36 148
-64 24 -9 62 -27 84 -39 22 -12 54 -30 71 -39 31 -18 98 -16 142 2 34 14 138
27 182 23 23 -3 74 0 112 7 l71 12 0 364 0 364 -640 0 -640 0 0 -202z"/>
</g>
</svg>
